<svg width="36" height="29" viewBox="0 0 36 29" fill="none" xmlns="http://www.w3.org/2000/svg">
<path d="M23.6152 29L17.9985 24.891L12.3821 29L0.0968386 20.003C0.100655 20.0015 0.104257 19.9994 0.107569 19.997L14.895 9.07874C14.8981 9.07639 14.9009 9.07366 14.9034 9.07062L14.8976 9.07468L14.7729 8.98449L14.8059 8.95984C14.8143 8.95354 14.8245 8.95008 14.8349 8.94998C14.8426 8.94993 14.8501 8.9517 14.8569 8.95512C14.8637 8.95855 14.8696 8.96355 14.8741 8.9697L14.9031 9.00914C14.91 9.01787 14.9137 9.02864 14.9137 9.03973C14.9137 9.05083 14.9102 9.06189 14.9034 9.07062L17.9982 6.80369L21.0988 9.07439C21.0902 9.06597 21.085 9.0547 21.0841 9.04269C21.0832 9.03069 21.0867 9.01876 21.0939 9.00914L21.1229 8.9697C21.1275 8.96356 21.1335 8.95858 21.1403 8.95515C21.1472 8.95173 21.1547 8.94996 21.1624 8.94998C21.1728 8.95008 21.183 8.95354 21.1914 8.95984L21.2236 8.98362L21.0988 9.07439L21.1026 9.07845L35.89 19.9967C35.893 19.999 35.8962 20.0009 35.8996 20.0025L23.6152 29ZM35.9214 20.0068C35.9144 20.0068 35.9076 20.0053 35.9013 20.0025L35.9611 19.9587V19.952C35.9611 19.952 35.9611 19.9276 35.9611 19.8633L35.9805 19.8775C35.9909 19.8855 35.9977 19.8972 35.9995 19.9102C36.0013 19.9231 35.9979 19.9363 35.9901 19.9468L35.9611 19.9862C35.9566 19.9926 35.9507 19.9978 35.9437 20.0013C35.9368 20.0049 35.9291 20.0068 35.9214 20.0068ZM0.0782468 20.0068C0.0705905 20.0068 0.0630679 20.005 0.0562199 20.0016C0.0493719 19.9982 0.0433905 19.9932 0.0387967 19.9871L0.0097935 19.9477C0.0019615 19.9371 -0.00137 19.9238 0.000515305 19.9108C0.00135647 19.9044 0.00349342 19.8982 0.0067834 19.8926C0.0100734 19.887 0.0144603 19.8822 0.0196737 19.8783L0.0373448 19.8653V19.9097C0.0373448 19.9413 0.0373448 19.9532 0.0373448 19.9575V19.9595L0.0974052 20.0039C0.091263 20.0061 0.0847396 20.0072 0.0782468 20.0068ZM0.0373448 19.8653C0.0414062 19.1522 0.0588158 15.7728 0.12786 2.21821C0.120101 1.6405 0.312508 1.0779 0.672405 0.62582C0.752301 0.5298 0.841161 0.441627 0.937826 0.3625C1.03043 0.286849 1.13067 0.22105 1.23692 0.16617C1.44127 0.0584884 1.66854 0.0014969 1.89954 2.59651e-08C2.04746 -2.87534e-05 2.19441 0.0238667 2.33469 0.07076C2.48724 0.122226 2.63103 0.196645 2.76113 0.29145L14.774 8.9842L0.0373448 19.8653ZM35.9614 19.8653L21.2256 8.98536L33.2376 0.29319C33.3677 0.198397 33.5115 0.123979 33.6641 0.0725C33.8044 0.0256364 33.9513 0.00174178 34.0992 0.00174003C34.3302 0.00285524 34.5576 0.0594476 34.7621 0.16675C34.8684 0.221523 34.9687 0.287329 35.0612 0.36308C35.1579 0.442137 35.2468 0.530317 35.3266 0.6264C35.6865 1.07846 35.8788 1.6411 35.8709 2.21879C35.9399 15.7131 35.9579 19.1368 35.9626 19.8647L35.9614 19.8653Z" fill="#7BA7CC"/>
</svg>
