<svg width="61" height="60" viewBox="0 0 61 60" fill="none" xmlns="http://www.w3.org/2000/svg">
<g clip-path="url(#clip0_397_574)">
<path d="M57.6716 18.9616C55.2954 16.5418 51.807 15.4598 48.4751 16.0846C45.9293 4.12086 31.0209 -1.1017 21.5699 6.70689C21.1922 7.0118 21.1331 7.56503 21.438 7.94283C21.7431 8.32052 22.296 8.37982 22.674 8.07467C31.1929 0.980785 44.8399 5.93218 46.8364 16.8319C46.9074 17.1906 47.1153 17.4977 47.4217 17.6969C47.726 17.8947 48.1041 17.9622 48.4591 17.8818C51.3123 17.2261 54.3741 18.1081 56.424 20.1999C58.0431 21.831 58.9255 23.9954 58.9085 26.2943C58.8737 30.978 54.9809 34.7884 50.231 34.7884H47.709V26.3278C47.709 25.0678 46.6839 24.0427 45.4239 24.0427H44.1501C42.9864 24.083 42.9873 25.7606 44.1501 25.8005H45.4239C45.7147 25.8005 45.9513 26.0371 45.9513 26.3278V41.161C45.9513 41.4517 45.7147 41.6883 45.4239 41.6883H15.9098C15.6191 41.6883 15.3825 41.4517 15.3825 41.161V26.3278C15.3825 26.0371 15.6191 25.8005 15.9098 25.8005H26.6568C27.3028 25.8005 27.9053 25.4529 28.2302 24.8923L30.667 20.672L33.1043 24.8931C33.4283 25.4527 34.0309 25.8004 34.6771 25.8004H40.0488C41.2126 25.76 41.2116 24.0824 40.0488 24.0426H34.6771C34.6561 24.0426 34.6364 24.031 34.6261 24.0133L31.8331 19.1761C31.3373 18.2878 29.9959 18.2882 29.5004 19.1771L26.7085 24.0122C26.6977 24.031 26.6779 24.0427 26.657 24.0427H15.91C14.65 24.0427 13.6249 25.0678 13.6249 26.3278V34.7884H12.1835C6.83613 34.7884 2.45882 30.4386 2.42554 25.0919C2.40937 22.483 3.41973 20.0207 5.27054 18.1584C8.00762 15.34 12.387 14.4883 15.9772 16.0367C16.3266 16.1842 16.7243 16.178 17.0682 16.0201C17.4104 15.8629 17.6725 15.5667 17.7881 15.2065C18.2831 13.6524 19.0259 12.196 19.9962 10.8777C20.284 10.4868 20.2002 9.93673 19.8093 9.64904C19.4185 9.36135 18.8683 9.44502 18.5806 9.83595C17.5839 11.19 16.802 12.6749 16.2528 14.254C8.80647 11.3646 0.549061 17.1207 0.667769 25.1029C0.706909 31.4128 5.87287 36.5462 12.1835 36.5462H13.6249V41.161C13.6249 42.421 14.65 43.4461 15.91 43.4461H20.387L18.8279 44.7815C18.5277 45.0378 18.3557 45.4108 18.3557 45.8049V47.6112C14.4143 48.7097 15.0989 54.4361 19.2346 54.5311C23.371 54.4358 24.054 48.709 20.1135 47.6112V45.9949L23.0892 43.4461H29.7882V48.8859C25.06 50.0285 25.7567 56.8717 30.6672 56.993C35.5786 56.8711 36.2735 50.0277 31.546 48.8859V43.4461H38.2451L41.2208 45.9948V47.6113C37.2794 48.7098 37.964 54.4363 42.0996 54.5312C46.236 54.4359 46.9191 48.7091 42.9785 47.6113V45.805C42.9785 45.4109 42.8064 45.0378 42.5073 44.7824L40.9471 43.4461H45.4241C46.684 43.4461 47.7092 42.421 47.7092 41.161V36.5462H50.2311C55.9431 36.5462 60.6243 31.953 60.6664 26.3073C60.6866 23.5363 59.6231 20.9276 57.6716 18.9616ZM20.9921 51.0156C20.9921 51.9849 20.2036 52.7734 19.2344 52.7734C16.9057 52.6852 16.9063 49.3458 19.2344 49.2579C20.2037 49.2579 20.9921 50.0464 20.9921 51.0156ZM33.0107 52.8917C33.0107 54.184 31.9593 55.2353 30.667 55.2353C27.5621 55.1176 27.5629 50.6653 30.667 50.548C31.9593 50.548 33.0107 51.5993 33.0107 52.8917ZM43.8572 51.0156C43.8572 51.9849 43.0686 52.7734 42.0994 52.7734C39.7707 52.6852 39.7713 49.3458 42.0994 49.2579C43.0688 49.2579 43.8572 50.0464 43.8572 51.0156Z" fill="black"/>
<path d="M24.6585 28.7783C24.6554 28.7702 24.6523 28.762 24.649 28.754C24.4789 28.3411 24.0804 28.0746 23.634 28.0752C23.1875 28.0759 22.7899 28.3433 22.6209 28.7566C22.6182 28.7632 22.6156 28.7696 22.6132 28.7763L19.0158 38.2216C18.843 38.6751 19.0708 39.1829 19.5244 39.3557C19.9774 39.5285 20.4857 39.3009 20.6585 38.8472L21.3389 37.0609H25.9056L26.5788 38.8448C26.7497 39.3035 27.2691 39.5272 27.7114 39.3567C28.1655 39.1853 28.3947 38.6783 28.2232 38.2241L24.6585 28.7783ZM22.0082 35.3031L23.6325 31.0382L25.2421 35.3031H22.0082Z" fill="black"/>
<path d="M40.6179 38.5347C40.6582 39.6984 42.3358 39.6975 42.3757 38.5347V28.9545C42.3354 27.7907 40.6578 27.7917 40.6179 28.9545V38.5347Z" fill="black"/>
<path d="M31.7368 28.0753C31.2513 28.0753 30.8579 28.4687 30.8579 28.9542V38.5344C30.8982 39.6981 32.5758 39.6972 32.6157 38.5344V35.2471C33.2212 35.2438 33.9958 35.2401 34.4044 35.2401C39.2211 35.0592 39.2191 28.2552 34.4044 28.0752H31.7368V28.0753ZM36.2819 31.6578C36.2819 32.6468 35.4221 33.4824 34.4044 33.4824C34.0554 33.4824 33.2261 33.4851 32.6157 33.488V29.8332H34.4044C35.4221 29.8331 36.2819 30.6686 36.2819 31.6578Z" fill="black"/>
</g>
<defs>
<clipPath id="clip0_397_574">
<rect width="60" height="60" fill="white" transform="translate(0.666504)"/>
</clipPath>
</defs>
</svg>
