<svg width="60" height="60" viewBox="0 0 60 60" fill="none" xmlns="http://www.w3.org/2000/svg">
<path d="M39.6762 20.4962C39.6372 20.0124 39.212 19.6507 38.729 19.6903C35.9315 19.9153 32.9944 20.0295 29.9989 20.0295C22.8574 20.0295 16.1953 19.3889 11.2398 18.2258C10.768 18.1157 10.2937 18.4082 10.1826 18.881C10.0717 19.354 10.3651 19.8272 10.8378 19.9382C15.9212 21.1313 22.726 21.7882 29.9989 21.7882C33.0411 21.7882 36.0259 21.6722 38.8701 21.4433C39.3544 21.4044 39.7151 20.9803 39.6762 20.4962Z" fill="black"/>
<path d="M39.6762 35.5681C39.6372 35.0841 39.212 34.7228 38.729 34.7622C35.9315 34.9872 32.9944 35.1014 29.9989 35.1014C22.8574 35.1014 16.1953 34.4608 11.2398 33.2977C10.768 33.1872 10.2937 33.4801 10.1826 33.9529C10.0717 34.4259 10.3651 34.8991 10.8378 35.0101C15.9212 36.2032 22.726 36.8601 29.9989 36.8601C33.0411 36.8601 36.0259 36.7441 38.8701 36.5152C39.3544 36.4763 39.7151 36.0522 39.6762 35.5681Z" fill="black"/>
<path d="M57.6605 6.9177C57.4751 2.71219 46.0988 1.06816 41.1838 0.554648C39.6674 0.396211 38.078 0.269531 36.4594 0.178359C34.3567 0.06 32.183 0 29.9989 0C24.4103 0 19.0435 0.388594 14.4785 1.12395C13.999 1.20117 13.6729 1.65246 13.7502 2.13199C13.8275 2.61141 14.2793 2.93789 14.7583 2.86031C19.2324 2.13973 24.5024 1.75875 29.999 1.75875C32.1503 1.75875 34.2906 1.81781 36.3606 1.93441C37.9511 2.02395 39.5124 2.14828 41.0012 2.30379C45.5493 2.77898 49.3943 3.53367 52.1206 4.48629C55.7236 5.74535 55.9062 6.81902 55.9062 7.02141C55.9062 7.70613 54.3975 9.21094 48.7435 10.5074C48.5873 10.5432 48.4295 10.5785 48.2701 10.6133C43.3301 11.692 36.868 12.2842 29.999 12.2842C23.1299 12.2842 16.6678 11.6919 11.7278 10.6133C11.5684 10.5785 11.4107 10.5432 11.2545 10.5074C5.65175 9.22277 4.12046 7.73414 4.09304 7.04098C4.09315 7.03441 4.09397 7.02809 4.09397 7.02164C4.09397 7.01543 4.09315 7.00945 4.09304 7.00324C4.10745 6.58934 4.60855 6.06176 5.47491 5.55164C6.56804 4.90793 8.17093 4.3125 10.2393 3.78187C10.7097 3.66117 10.9932 3.18199 10.8725 2.71148C10.7517 2.24121 10.273 1.95797 9.80206 2.07832C4.84585 3.3498 2.33276 5.01316 2.33276 7.02176V52.9787C2.33276 55.1318 5.20222 56.8814 10.8613 58.179C15.9833 59.3532 22.7799 60 29.9989 60C37.2178 60 44.0146 59.3532 49.1363 58.1788C54.7954 56.8812 57.6648 55.1316 57.6648 52.9785V7.06687C57.6657 7.05176 57.6672 7.03676 57.6672 7.02152C57.6673 6.98637 57.6647 6.9518 57.6605 6.9177ZM48.7433 56.4645C43.7465 57.6102 37.0896 58.2411 29.9989 58.2411C22.9081 58.2411 16.2512 57.6102 11.2544 56.4645C5.6003 55.1679 4.09163 53.6632 4.09163 52.9785V40.3325C4.11085 40.3458 4.13206 40.3588 4.15163 40.372C4.19933 40.4043 4.24819 40.4362 4.29776 40.4681C4.33784 40.4939 4.37827 40.5197 4.41952 40.5454C4.4712 40.5775 4.5244 40.6092 4.57808 40.641C4.62026 40.6659 4.6621 40.691 4.70546 40.7157C4.76206 40.7481 4.82054 40.7802 4.87913 40.8123C4.92249 40.836 4.96503 40.8598 5.00944 40.8833C5.07331 40.9172 5.13952 40.9506 5.20562 40.9841C5.24757 41.0053 5.28835 41.0268 5.33124 41.0479C5.41315 41.0882 5.49788 41.128 5.58308 41.1679C5.61284 41.1817 5.64108 41.1959 5.6712 41.2097C5.78687 41.2628 5.90569 41.3154 6.02733 41.3675C6.0653 41.3838 6.10526 41.3998 6.14394 41.4161C6.22983 41.4521 6.31585 41.4881 6.40468 41.5238C6.45519 41.544 6.50757 41.5639 6.55901 41.5841C6.6387 41.6153 6.71839 41.6464 6.8003 41.6773C6.85702 41.6986 6.91526 41.7197 6.97304 41.7408C7.05272 41.77 7.13276 41.7991 7.21444 41.8281C7.27526 41.8495 7.33749 41.8709 7.39948 41.8922C7.4814 41.9203 7.5639 41.9484 7.64792 41.9763C7.71179 41.9975 7.77659 42.0186 7.84163 42.0397C7.92671 42.0673 8.01272 42.0947 8.09979 42.1219C8.16636 42.1427 8.23339 42.1635 8.30112 42.1841C8.39019 42.2113 8.48065 42.2382 8.57171 42.2651C8.64003 42.2852 8.70823 42.3053 8.77772 42.3253C8.87218 42.3525 8.96839 42.3793 9.06495 42.4062C9.13374 42.4253 9.20206 42.4445 9.2719 42.4634C9.37444 42.4911 9.47921 42.5187 9.58409 42.5461C9.65054 42.5636 9.71628 42.5811 9.78366 42.5984C9.90144 42.6286 10.0218 42.6584 10.1423 42.6881C10.1996 42.7023 10.2556 42.7166 10.3135 42.7307C10.4932 42.7743 10.6756 42.8174 10.8613 42.8599C15.9833 44.0343 22.7798 44.6811 29.9989 44.6811C37.218 44.6811 44.0145 44.0343 49.1364 42.8599C49.3221 42.8174 49.5045 42.7741 49.6842 42.7307C49.7423 42.7166 49.7984 42.7023 49.8557 42.6881C49.976 42.6584 50.0963 42.6287 50.2139 42.5985C50.2816 42.5811 50.3473 42.5636 50.414 42.5461C50.5186 42.5187 50.6233 42.4911 50.7257 42.4634C50.7955 42.4444 50.8639 42.4253 50.9326 42.4062C51.0292 42.3793 51.1254 42.3525 51.2199 42.3253C51.2892 42.3054 51.3576 42.2852 51.4259 42.2651C51.5169 42.2382 51.6074 42.2113 51.6965 42.1841C51.7642 42.1635 51.8312 42.1427 51.8979 42.1219C51.9849 42.0947 52.0708 42.0673 52.1558 42.0398C52.221 42.0187 52.2859 41.9977 52.3499 41.9763C52.4337 41.9484 52.5162 41.9204 52.598 41.8923C52.66 41.871 52.7222 41.8496 52.783 41.8282C52.8648 41.7994 52.9448 41.7702 53.0244 41.7409C53.0822 41.7197 53.1405 41.6987 53.1972 41.6774C53.2791 41.6466 53.3588 41.6154 53.4385 41.5842C53.4899 41.5641 53.5423 41.5441 53.5928 41.5239C53.6813 41.4884 53.7672 41.4524 53.8528 41.4164C53.8917 41.4001 53.9319 41.3839 53.9703 41.3675C54.0919 41.3154 54.2106 41.2628 54.3263 41.2098C54.3564 41.196 54.3848 41.1819 54.4144 41.168C54.4996 41.1281 54.5843 41.0883 54.6662 41.048C54.7091 41.0269 54.7499 41.0054 54.7919 40.9842C54.858 40.9507 54.9242 40.9173 54.988 40.8834C55.0324 40.8599 55.0751 40.8361 55.1185 40.8123C55.1769 40.7803 55.2354 40.7482 55.2919 40.7159C55.3354 40.691 55.3773 40.6659 55.4196 40.6409C55.4732 40.6091 55.5263 40.5773 55.578 40.5454C55.6193 40.5197 55.6596 40.4939 55.6998 40.4681C55.7494 40.4362 55.7983 40.4041 55.846 40.372C55.8655 40.3588 55.8866 40.3458 55.906 40.3325V52.9785H55.9061C55.9061 53.6632 54.3975 55.168 48.7433 56.4645ZM55.8643 37.8729C55.5869 38.6246 53.8675 39.9705 48.7435 41.1456C43.7466 42.2913 37.0896 42.9224 29.999 42.9224C22.9083 42.9224 16.2514 42.2913 11.2545 41.1456C6.13046 39.9705 4.41108 38.6246 4.1337 37.8729C4.10499 37.7952 4.09175 37.7237 4.09175 37.6595V25.0134C4.11038 25.0262 4.13077 25.0387 4.14964 25.0515C4.19862 25.0846 4.24878 25.1175 4.29976 25.1503C4.3389 25.1755 4.37815 25.2006 4.41847 25.2255C4.47108 25.2581 4.52522 25.2906 4.57983 25.3229C4.6212 25.3474 4.66233 25.372 4.70487 25.3963C4.76206 25.429 4.82112 25.4613 4.8803 25.4938C4.92319 25.5172 4.96538 25.5408 5.00933 25.5641C5.07296 25.5979 5.13894 25.6313 5.20491 25.6645C5.24733 25.686 5.28858 25.7077 5.33183 25.729C5.41245 25.7687 5.49589 25.8079 5.57968 25.8471C5.61062 25.8616 5.64026 25.8763 5.67167 25.8907C5.7871 25.9437 5.90569 25.9962 6.02698 26.0482C6.06706 26.0654 6.10936 26.0823 6.15015 26.0994C6.23382 26.1345 6.31749 26.1696 6.40386 26.2043C6.45624 26.2253 6.51062 26.246 6.56394 26.2669C6.64163 26.2972 6.71933 26.3277 6.79925 26.3577C6.85749 26.3796 6.91749 26.4013 6.9769 26.4231C7.05495 26.4517 7.13311 26.4802 7.21315 26.5085C7.27538 26.5305 7.33901 26.5523 7.40241 26.5741C7.48292 26.6018 7.5639 26.6293 7.64628 26.6568C7.71144 26.6784 7.77753 26.6999 7.84386 26.7213C7.92788 26.7485 8.01272 26.7755 8.09862 26.8024C8.16601 26.8235 8.23386 26.8445 8.30241 26.8654C8.39077 26.8923 8.4803 26.919 8.57054 26.9455C8.63944 26.9658 8.70835 26.9862 8.77831 27.0062C8.87229 27.0332 8.96792 27.06 9.06401 27.0866C9.13327 27.1058 9.20218 27.1252 9.27249 27.1443C9.37421 27.1718 9.47804 27.1991 9.58198 27.2264C9.64937 27.2441 9.71593 27.2619 9.78425 27.2794C9.90144 27.3095 10.0213 27.339 10.1413 27.3687C10.199 27.3829 10.2553 27.3974 10.3136 27.4114C10.4934 27.455 10.6757 27.4982 10.8614 27.5407C15.9835 28.715 22.78 29.3619 29.999 29.3619C37.218 29.3619 44.0146 28.715 49.1365 27.5407C49.3223 27.4982 49.5046 27.4549 49.6844 27.4114C49.7427 27.3973 49.7992 27.3829 49.8569 27.3687C49.9767 27.3391 50.0964 27.3095 50.2135 27.2795C50.2819 27.2619 50.3487 27.2441 50.4162 27.2264C50.5199 27.1992 50.6236 27.172 50.7252 27.1444C50.7955 27.1253 50.8644 27.1059 50.9337 27.0867C51.0297 27.06 51.1254 27.0333 51.2194 27.0063C51.2895 26.9862 51.3584 26.9659 51.4272 26.9456C51.5174 26.919 51.6071 26.8923 51.6953 26.8655C51.7639 26.8446 51.8317 26.8235 51.8992 26.8024C51.985 26.7756 52.0698 26.7486 52.1537 26.7214C52.2202 26.7 52.2864 26.6784 52.3517 26.6568C52.4339 26.6295 52.5148 26.6019 52.5952 26.5743C52.6587 26.5525 52.7222 26.5307 52.7846 26.5086C52.8646 26.4804 52.9428 26.4518 53.0208 26.4232C53.0802 26.4014 53.1402 26.3798 53.1985 26.3578C53.2784 26.3278 53.356 26.2973 53.4338 26.267C53.4871 26.2461 53.5415 26.2254 53.5939 26.2044C53.68 26.1698 53.7634 26.1349 53.8469 26.0999C53.888 26.0827 53.9304 26.0657 53.9708 26.0483C54.0923 25.9963 54.2107 25.9438 54.3262 25.8908C54.3576 25.8764 54.3871 25.8618 54.4182 25.8472C54.5019 25.8081 54.5854 25.7688 54.666 25.7291C54.7092 25.7078 54.7505 25.6862 54.7929 25.6646C54.8588 25.6313 54.9249 25.5979 54.9885 25.5642C55.0324 25.5409 55.0748 25.5173 55.1176 25.4938C55.1767 25.4614 55.2358 25.4291 55.2928 25.3964C55.3355 25.372 55.3767 25.3474 55.4182 25.3228C55.4727 25.2905 55.5269 25.2581 55.5794 25.2255C55.6197 25.2006 55.6589 25.1754 55.6981 25.1503C55.7491 25.1175 55.7992 25.0846 55.8482 25.0515C55.8671 25.0387 55.8875 25.0262 55.9061 25.0134V37.6595H55.9062C55.9061 37.7237 55.893 37.7951 55.8643 37.8729ZM48.7433 25.8265C43.7465 26.9722 37.0895 27.6033 29.9989 27.6033C22.9082 27.6033 16.2512 26.9722 11.2544 25.8265C5.6003 24.53 4.09163 23.0254 4.09163 22.3405V9.69445C4.11026 9.70723 4.13065 9.71977 4.14952 9.73254C4.19851 9.76559 4.24866 9.79852 4.29964 9.83133C4.33878 9.85652 4.37804 9.8816 4.41835 9.90656C4.47097 9.93914 4.52511 9.9716 4.57972 10.0039C4.62108 10.0284 4.66222 10.053 4.70476 10.0773C4.76194 10.11 4.82101 10.1423 4.88019 10.1748C4.92308 10.1982 4.96526 10.2218 5.00921 10.2451C5.07284 10.2789 5.13882 10.3123 5.2048 10.3455C5.24722 10.367 5.28847 10.3887 5.33171 10.41C5.41233 10.4497 5.49577 10.4889 5.57956 10.5281C5.6105 10.5427 5.64015 10.5573 5.67155 10.5717C5.78698 10.6247 5.90558 10.6772 6.02687 10.7292C6.06694 10.7464 6.10925 10.7633 6.15003 10.7804C6.2337 10.8155 6.31737 10.8506 6.40374 10.8853C6.45612 10.9063 6.5105 10.927 6.56382 10.9479C6.64151 10.9782 6.71921 11.0087 6.79913 11.0387C6.85737 11.0606 6.91737 11.0823 6.97679 11.1041C7.05483 11.1327 7.133 11.1612 7.21304 11.1895C7.27526 11.2116 7.3389 11.2334 7.4023 11.2552C7.4828 11.2828 7.56378 11.3104 7.64616 11.3378C7.71132 11.3595 7.77741 11.3809 7.84374 11.4023C7.92776 11.4295 8.01261 11.4565 8.09851 11.4834C8.16589 11.5045 8.23374 11.5255 8.3023 11.5464C8.39065 11.5733 8.48019 11.6 8.57042 11.6265C8.63933 11.6468 8.70823 11.6672 8.77819 11.6872C8.87218 11.7142 8.9678 11.741 9.0639 11.7676C9.13315 11.7868 9.20206 11.8062 9.27237 11.8253C9.37409 11.8528 9.47792 11.8801 9.58187 11.9074C9.64925 11.9251 9.71581 11.9429 9.78413 11.9604C9.90132 11.9904 10.0212 12.02 10.1412 12.0497C10.1989 12.0639 10.2552 12.0784 10.3135 12.0925C10.4932 12.1361 10.6756 12.1792 10.8613 12.2217C15.9832 13.3961 22.7798 14.0429 29.9989 14.0429C37.218 14.0429 44.0146 13.3961 49.1364 12.2217C49.3221 12.1792 49.5045 12.1359 49.6842 12.0925C49.7426 12.0783 49.7991 12.0639 49.8567 12.0497C49.9766 12.0202 50.0963 11.9905 50.2133 11.9605C50.2818 11.9429 50.3486 11.9251 50.4161 11.9074C50.5198 11.8802 50.6235 11.853 50.7251 11.8254C50.7954 11.8063 50.8643 11.787 50.9336 11.7677C51.0296 11.741 51.1253 11.7143 51.2193 11.6873C51.2894 11.6672 51.3583 11.6469 51.4271 11.6266C51.5173 11.6 51.6069 11.5733 51.6952 11.5465C51.7637 11.5256 51.8316 11.5045 51.8991 11.4834C51.9849 11.4566 52.0697 11.4296 52.1536 11.4025C52.2201 11.381 52.2863 11.3595 52.3516 11.3378C52.4338 11.3105 52.5147 11.2829 52.5951 11.2553C52.6586 11.2335 52.7221 11.2117 52.7844 11.1896C52.8645 11.1614 52.9426 11.1328 53.0207 11.1042C53.0801 11.0824 53.1401 11.0609 53.1983 11.0388C53.2783 11.0088 53.3559 10.9784 53.4337 10.948C53.487 10.9271 53.5414 10.9064 53.5937 10.8854C53.6799 10.8509 53.7633 10.8159 53.8467 10.7809C53.8879 10.7637 53.9303 10.7467 53.9707 10.7293C54.0921 10.6773 54.2106 10.6248 54.326 10.5718C54.3575 10.5574 54.387 10.5428 54.418 10.5282C54.5018 10.4891 54.5853 10.4498 54.6659 10.4101C54.7091 10.3888 54.7504 10.3672 54.7928 10.3457C54.8587 10.3123 54.9248 10.2789 54.9884 10.2452C55.0323 10.2219 55.0746 10.1984 55.1175 10.1748C55.1766 10.1425 55.2357 10.1101 55.2927 10.0774C55.3354 10.053 55.3766 10.0284 55.4181 10.0038C55.4726 9.97148 55.5267 9.93914 55.5792 9.90656C55.6196 9.8816 55.6588 9.85641 55.698 9.83133C55.7489 9.79852 55.7991 9.76559 55.8481 9.73254C55.8669 9.71977 55.8873 9.70723 55.906 9.69445V22.3405H55.9061C55.9061 23.0252 54.3975 24.53 48.7433 25.8265Z" fill="black"/>
<path d="M48.6918 16.9345C47.3549 15.598 45.1801 15.598 43.8433 16.9345C42.5067 18.2713 42.5067 20.4462 43.8433 21.7829C44.5116 22.4511 45.3896 22.7855 46.2676 22.7855C47.1455 22.7855 48.0234 22.4512 48.6918 21.7829C50.0285 20.4462 50.0285 18.2713 48.6918 16.9345ZM47.448 20.5392C47.1328 20.8546 46.7135 21.0282 46.2676 21.0282C45.8217 21.0282 45.4024 20.8546 45.0871 20.5392C44.7718 20.224 44.5981 19.8047 44.5981 19.3588C44.5981 18.9129 44.7718 18.4936 45.0871 18.1783C45.4024 17.863 45.8217 17.6893 46.2676 17.6893C46.7135 17.6893 47.1328 17.863 47.448 18.1783C47.7633 18.4936 47.937 18.9129 47.937 19.3588C47.937 19.8047 47.7633 20.224 47.448 20.5392Z" fill="black"/>
<path d="M48.6918 32.0522C47.3549 30.7157 45.1801 30.7157 43.8433 32.0522C42.5067 33.389 42.5067 35.5638 43.8433 36.9006C44.5116 37.5688 45.3896 37.9031 46.2676 37.9031C47.1455 37.9031 48.0234 37.5689 48.6918 36.9006C50.0285 35.5638 50.0285 33.389 48.6918 32.0522ZM47.448 35.6569C47.1328 35.9722 46.7135 36.1459 46.2676 36.1459C45.8217 36.1459 45.4024 35.9722 45.0871 35.6569C44.7718 35.3417 44.5981 34.9224 44.5981 34.4765C44.5981 34.0306 44.7718 33.6113 45.0871 33.296C45.4024 32.9807 45.8217 32.807 46.2676 32.807C46.7135 32.807 47.1328 32.9807 47.448 33.296C47.7633 33.6113 47.937 34.0306 47.937 34.4765C47.937 34.9224 47.7633 35.3417 47.448 35.6569Z" fill="black"/>
<path d="M48.6918 47.1928C47.3549 45.8563 45.1801 45.8563 43.8433 47.1928C42.5067 48.5296 42.5067 50.7045 43.8433 52.0412C44.5116 52.7094 45.3896 53.0438 46.2676 53.0438C47.1455 53.0438 48.0234 52.7095 48.6918 52.0412C50.0285 50.7045 50.0285 48.5296 48.6918 47.1928ZM47.448 50.7975C47.1328 51.1129 46.7135 51.2865 46.2676 51.2865C45.8217 51.2865 45.4024 51.1129 45.0871 50.7975C44.7718 50.4823 44.5981 50.063 44.5981 49.6171C44.5981 49.1712 44.7718 48.7519 45.0871 48.4367C45.4024 48.1213 45.8217 47.9476 46.2676 47.9476C46.7135 47.9476 47.1328 48.1213 47.448 48.4367C47.7633 48.7519 47.937 49.1712 47.937 49.6171C47.937 50.0629 47.7633 50.4823 47.448 50.7975Z" fill="black"/>
<path d="M39.6762 50.9242C39.6373 50.4404 39.212 50.0777 38.7291 50.1183C37.4992 50.2173 36.2284 50.2956 34.952 50.3511C34.4669 50.3723 34.0906 50.7827 34.1117 51.268C34.1323 51.7402 34.5215 52.1091 34.9897 52.1091C35.0025 52.1091 35.0156 52.1089 35.0286 52.1083C36.3265 52.0518 37.6189 51.9721 38.8702 51.8714C39.3543 51.8324 39.7152 51.4083 39.6762 50.9242Z" fill="black"/>
<path d="M30.2726 50.4576C30.2719 50.4576 30.271 50.4576 30.2703 50.4576L29.9989 50.4578C22.8574 50.4578 16.1953 49.8173 11.2398 48.6542C10.768 48.5437 10.2937 48.8365 10.1826 49.3094C10.0717 49.7823 10.3651 50.2555 10.8378 50.3665C15.9212 51.5596 22.726 52.2166 29.9989 52.2166L30.2747 52.2163C30.7604 52.215 31.1531 51.8203 31.1519 51.3347C31.1505 50.8498 30.7571 50.4576 30.2726 50.4576Z" fill="black"/>
</svg>
