<svg width="31" height="30" viewBox="0 0 31 30" fill="none" xmlns="http://www.w3.org/2000/svg">
<path fill-rule="evenodd" clip-rule="evenodd" d="M28.5774 12.7803C28.406 11.94 28.1483 11.1124 27.8149 10.3218C27.4873 9.54554 27.0809 8.79836 26.6089 8.09986C26.1406 7.40718 25.6035 6.75631 25.0119 6.16523C24.4208 5.57309 23.7694 5.03546 23.0773 4.5682C22.3788 4.0946 21.6305 3.68979 20.8553 3.36118C20.0647 3.02833 19.2377 2.7701 18.3968 2.59971C17.5359 2.42297 16.649 2.33301 15.7632 2.33301C14.8763 2.33301 13.9904 2.42297 13.1284 2.59971C12.2881 2.7701 11.4605 3.02886 10.6705 3.36118C9.89523 3.68979 9.14699 4.09513 8.44743 4.5682C7.75475 5.03546 7.10388 5.57256 6.5128 6.16523C5.92119 6.75631 5.38462 7.40771 4.91684 8.09986C4.44429 8.79836 4.03842 9.54554 3.71087 10.3218C3.37591 11.1124 3.11926 11.94 2.94728 12.7803C2.77107 13.6402 2.68164 14.5271 2.68164 15.4135C2.68164 16.3014 2.77107 17.1883 2.94728 18.0487C3.11926 18.889 3.37644 19.7166 3.71034 20.5067C4.03789 21.2819 4.44429 22.0312 4.91631 22.7297C5.38409 23.4224 5.92067 24.0722 6.51227 24.6643C7.10335 25.2554 7.75475 25.792 8.4469 26.2603C9.14646 26.7328 9.8947 27.1387 10.6699 27.4663C11.4594 27.8012 12.2876 28.0563 13.1279 28.2288C13.9899 28.4066 14.8757 28.4955 15.7626 28.4955C16.6484 28.4955 17.5353 28.4066 18.3963 28.2288C19.2377 28.0563 20.0642 27.8007 20.8548 27.4663C21.63 27.1387 22.3783 26.7323 23.0768 26.2603C23.7694 25.792 24.4203 25.2559 25.0114 24.6643C25.6025 24.0722 26.1401 23.4219 26.6084 22.7297C27.0809 22.0312 27.4868 21.2819 27.8144 20.5067C28.1483 19.7172 28.4055 18.889 28.5769 18.0487C28.7536 17.1878 28.8425 16.3009 28.8425 15.4135C28.8431 14.5271 28.7542 13.6402 28.5774 12.7803ZM26.9296 15.3029C26.7682 15.2679 22.9879 14.4541 19.1493 14.9367C19.071 14.7457 18.9911 14.553 18.9085 14.3599C18.6762 13.8133 18.4259 13.2714 18.1656 12.7396C22.5777 10.9394 24.369 8.34909 24.3896 8.3184C25.9565 10.2202 26.9042 12.6512 26.9296 15.3029ZM23.1408 7.02988C23.1127 7.07328 21.5221 9.49474 17.3057 11.0754C15.3959 7.56646 13.2978 4.77934 13.13 4.55815C13.9746 4.35336 14.8551 4.24277 15.7626 4.24277C18.5915 4.24277 21.1723 5.29687 23.1408 7.02988ZM13.0866 4.56715C13.0866 4.5682 13.0845 4.56926 13.0845 4.56926C13.0845 4.56926 13.0723 4.57244 13.0517 4.57667C13.0628 4.5735 13.0755 4.57138 13.0866 4.56715ZM10.9959 5.31009C11.1446 5.50959 13.211 8.31046 15.1446 11.7469C9.7804 13.1719 5.12533 13.1164 4.83005 13.1111C5.55607 9.65084 7.8807 6.7817 10.9959 5.31009ZM4.5914 15.4135C4.5914 15.2944 4.59669 15.178 4.60093 15.0605C4.79777 15.0647 10.318 15.1902 16.0695 13.4688C16.3897 14.0953 16.6961 14.7319 16.976 15.368C16.8284 15.4092 16.6813 15.4537 16.5357 15.5013C10.5069 17.4497 7.4489 22.8747 7.4489 22.8747C7.4489 22.8747 7.45313 22.8779 7.45313 22.88C5.6746 20.9004 4.5914 18.2837 4.5914 15.4135ZM15.7626 26.5857C13.0591 26.5857 10.5794 25.6248 8.64693 24.0256C8.79351 24.1447 8.89722 24.2209 8.89722 24.2209C8.89722 24.2209 11.0388 19.5505 17.6634 17.2423C17.6883 17.2327 17.7131 17.2259 17.738 17.2184C19.3101 21.3031 19.9589 24.7241 20.1245 25.7004C18.7836 26.2709 17.3099 26.5857 15.7626 26.5857ZM22.0052 24.6802C21.8914 24.0055 21.2961 20.7268 19.8308 16.7004C23.4366 16.1236 26.5624 17.1126 26.7926 17.1883C26.2951 20.3008 24.5134 22.9858 22.0052 24.6802Z" fill="white"/>
</svg>
