<svg width="60" height="60" viewBox="0 0 60 60" fill="none" xmlns="http://www.w3.org/2000/svg">
<path d="M54.5455 1.02734H5.45462C3.00916 1.02734 1.02734 3.00916 1.02734 5.45462V11.2546V54.5455C1.02734 56.991 3.01825 58.9819 5.46371 58.9819H54.5546C57.0001 58.9819 58.991 56.991 58.991 54.5455V11.2546V5.45462C58.9819 3.00916 56.991 1.02734 54.5455 1.02734ZM2.61825 5.45462C2.61825 3.89098 3.89098 2.60916 5.46371 2.60916H54.5546C56.1183 2.60916 57.4001 3.88189 57.4001 5.45462V10.4546H2.61825V5.45462ZM57.391 54.5455C57.391 56.1092 56.1183 57.391 54.5455 57.391H5.45462C3.89098 57.391 2.60916 56.1183 2.60916 54.5455V12.0455H57.3819V54.5455H57.391Z" fill="black"/>
<path d="M7.2729 40.7819H52.7274C53.1638 40.7819 53.5274 40.4274 53.5274 39.9819V16.7092C53.5274 16.2728 53.1729 15.9092 52.7274 15.9092H7.2729C6.83654 15.9092 6.4729 16.2637 6.4729 16.7092V39.991C6.48199 40.4274 6.83654 40.7819 7.2729 40.7819ZM33.1002 39.191C31.4274 37.791 30.1638 35.091 28.9911 32.3183C30.1911 29.8365 31.2456 28.8001 32.582 28.8001C34.7365 28.8001 35.9365 31.6455 37.2093 34.6546C37.8911 36.2728 38.6002 37.9183 39.5002 39.191H33.1002ZM30.882 39.191H9.19108C10.7093 37.3092 11.8365 34.6365 12.9365 32.0365C14.8456 27.5183 16.6547 23.2455 20.0456 23.2455C23.4365 23.2455 25.2365 27.5183 27.1547 32.0365C28.2365 34.6455 29.3638 37.3092 30.882 39.191ZM51.9365 17.5001V39.191H41.6002C40.4093 38.1455 39.5184 36.0637 38.6638 34.0365C37.2456 30.6819 35.782 27.2092 32.5729 27.2092C30.5365 27.2092 29.1911 28.6637 28.182 30.4183C26.2729 25.9546 24.1729 21.6546 20.0365 21.6546C15.5911 21.6546 13.4911 26.6183 11.4638 31.4183C10.4365 33.8455 9.38199 36.3274 8.06381 38.0274V17.5001H51.9365Z" fill="black"/>
<path d="M10.6636 3.91846C9.22723 3.91846 8.04541 5.09118 8.04541 6.53664C8.04541 7.98209 9.21814 9.15482 10.6636 9.15482C12.109 9.15482 13.2818 7.98209 13.2818 6.53664C13.2818 5.09118 12.1 3.91846 10.6636 3.91846ZM10.6636 7.55482C10.1 7.55482 9.63632 7.10028 9.63632 6.52755C9.63632 5.95482 10.0909 5.50028 10.6636 5.50028C11.2363 5.50028 11.6909 5.95482 11.6909 6.52755C11.6909 7.10028 11.2272 7.55482 10.6636 7.55482Z" fill="black"/>
<path d="M17.2637 3.91846C15.8273 3.91846 14.6455 5.09118 14.6455 6.53664C14.6455 7.98209 15.8182 9.15482 17.2637 9.15482C18.7091 9.15482 19.8819 7.98209 19.8819 6.53664C19.8819 5.09118 18.7001 3.91846 17.2637 3.91846ZM17.2637 7.55482C16.7001 7.55482 16.2364 7.10028 16.2364 6.52755C16.2364 5.95482 16.691 5.50028 17.2637 5.50028C17.8364 5.50028 18.291 5.95482 18.291 6.52755C18.291 7.10028 17.8273 7.55482 17.2637 7.55482Z" fill="black"/>
<path d="M23.8638 3.91846C22.4274 3.91846 21.2456 5.09118 21.2456 6.53664C21.2456 7.98209 22.4183 9.15482 23.8638 9.15482C25.3092 9.15482 26.482 7.98209 26.482 6.53664C26.482 5.09118 25.3002 3.91846 23.8638 3.91846ZM23.8638 7.55482C23.3002 7.55482 22.8365 7.10028 22.8365 6.52755C22.8365 5.95482 23.2911 5.50028 23.8638 5.50028C24.4365 5.50028 24.8911 5.95482 24.8911 6.52755C24.8911 7.10028 24.4274 7.55482 23.8638 7.55482Z" fill="black"/>
<path d="M10.9092 53.5275C13.3547 53.5275 15.3456 51.5366 15.3456 49.0911C15.3456 46.6457 13.3547 44.6548 10.9092 44.6548C8.46375 44.6548 6.48193 46.6457 6.48193 49.0911C6.48193 51.5366 8.46375 53.5275 10.9092 53.5275ZM10.9092 46.2548C12.4728 46.2548 13.7547 47.5275 13.7547 49.1002C13.7547 50.673 12.4819 51.9457 10.9092 51.9457C9.33648 51.9457 8.07284 50.6548 8.07284 49.0911C8.07284 47.5275 9.34557 46.2548 10.9092 46.2548Z" fill="black"/>
<path d="M27.8001 46.4819H18.0546C17.6183 46.4819 17.2546 46.8365 17.2546 47.2819C17.2546 47.7274 17.6092 48.0819 18.0546 48.0819H27.8001C28.2365 48.0819 28.6001 47.7274 28.6001 47.2819C28.6001 46.8365 28.2365 46.4819 27.8001 46.4819Z" fill="black"/>
<path d="M23.8637 50.1182H18.0546C17.6183 50.1182 17.2546 50.4727 17.2546 50.9182C17.2546 51.3636 17.6092 51.7182 18.0546 51.7182H23.8637C24.3001 51.7182 24.6637 51.3636 24.6637 50.9182C24.6637 50.4727 24.3001 50.1182 23.8637 50.1182Z" fill="black"/>
<path d="M35.8365 44.6636C33.3911 44.6636 31.4001 46.6545 31.4001 49.0999C31.4001 51.5454 33.3911 53.5363 35.8365 53.5363C38.282 53.5363 40.2729 51.5363 40.2729 49.0908C40.2729 46.6454 38.282 44.6636 35.8365 44.6636ZM35.8365 51.9363C34.2729 51.9363 32.9911 50.6636 32.9911 49.0908C32.9911 47.5181 34.2638 46.2454 35.8365 46.2454C37.4092 46.2454 38.682 47.5181 38.682 49.0908C38.682 50.6636 37.4092 51.9363 35.8365 51.9363Z" fill="black"/>
<path d="M52.7273 46.4819H42.9819C42.5455 46.4819 42.1819 46.8365 42.1819 47.2819C42.1819 47.7274 42.5364 48.0819 42.9819 48.0819H52.7273C53.1637 48.0819 53.5273 47.7274 53.5273 47.2819C53.5273 46.8365 53.1637 46.4819 52.7273 46.4819Z" fill="black"/>
<path d="M48.791 50.1182H42.9819C42.5455 50.1182 42.1819 50.4727 42.1819 50.9182C42.1819 51.3636 42.5364 51.7182 42.9819 51.7182H48.791C49.2273 51.7182 49.591 51.3636 49.591 50.9182C49.591 50.4727 49.2273 50.1182 48.791 50.1182Z" fill="black"/>
<path d="M44.4091 29.2274C47.0091 29.2274 49.1273 27.1092 49.1273 24.5092C49.1273 21.9092 47.0091 19.791 44.4091 19.791C41.8091 19.791 39.6909 21.9092 39.6909 24.5092C39.6909 27.1092 41.8091 29.2274 44.4091 29.2274ZM44.4091 21.391C46.1273 21.391 47.5364 22.791 47.5364 24.5183C47.5364 26.2456 46.1364 27.6456 44.4091 27.6456C42.6818 27.6456 41.2818 26.2456 41.2818 24.5183C41.2818 22.791 42.6818 21.391 44.4091 21.391Z" fill="black"/>
</svg>
