<svg width="25" height="24" viewBox="0 0 25 24" fill="none" xmlns="http://www.w3.org/2000/svg">
<path d="M18.308 8.5588L16.9812 5.58755C16.7895 5.1573 16.4415 4.82755 16.0017 4.65905C15.5617 4.4903 15.0825 4.5033 14.6525 4.69505C14.4372 4.79105 14.2512 4.9258 14.0975 5.0868L13.8942 4.6308C13.5132 3.7763 12.5082 3.3913 11.6535 3.7718L11.5315 3.82605C11.353 3.90555 11.1965 4.0138 11.0615 4.1408C10.6365 3.3893 9.69897 3.06905 8.89447 3.4273L8.77247 3.48155C7.91797 3.86255 7.53272 4.8678 7.91372 5.7223L7.96272 5.8323C7.78397 5.85005 7.60747 5.89505 7.43872 5.97055L7.31672 6.0248C6.90272 6.2093 6.58547 6.54405 6.42322 6.9673C6.26097 7.39055 6.27322 7.85155 6.45797 8.26555L8.32822 12.46C7.55047 12.2375 6.68097 12.5 6.16947 13.186C5.51422 14.0655 5.69047 15.3115 6.56022 15.9753C6.78547 16.1708 7.37147 16.6985 7.60597 16.9893C8.40022 17.9745 9.49997 19.2175 10.9657 20.0935C12.0637 20.7498 13.1712 21.0783 14.2787 21.0783C15.1385 21.0781 15.9985 20.8803 16.8537 20.4838C18.6087 19.6708 19.7115 18.6248 20.2252 17.2865C20.826 15.7213 20.7895 14.0345 20.1197 12.5328L18.308 8.5588ZM19.157 16.8768C18.755 17.9238 17.8442 18.7643 16.3725 19.4463C13.7682 20.6531 11.192 19.6148 8.49647 16.2715C8.14997 15.842 7.26197 15.072 7.26197 15.072C6.88222 14.789 6.80347 14.2498 7.08647 13.87C7.36947 13.4905 7.90872 13.4118 8.28847 13.6945L11.117 15.6788C11.3757 15.8603 11.7325 15.7975 11.9137 15.539C12.0952 15.2803 12.0325 14.9238 11.774 14.7423L10.0627 13.5418L7.50272 7.80005C7.44272 7.66505 7.43872 7.51505 7.49147 7.37705C7.54422 7.2393 7.64772 7.1303 7.78247 7.07005L7.90447 7.0158C8.03922 6.95555 8.18947 6.9513 8.32747 7.00455C8.46522 7.0573 8.57447 7.1608 8.63447 7.29555L10.7607 12.0645C10.8895 12.353 11.2275 12.4828 11.5162 12.354C11.8047 12.2255 11.9345 11.8873 11.8057 11.5985L8.95872 5.2563C8.83447 4.97805 8.96022 4.65055 9.23847 4.5263L9.36022 4.47205C9.63872 4.34805 9.96622 4.47355 10.0902 4.7518L13.0325 11.3508C13.1275 11.5635 13.3362 11.69 13.5552 11.69C13.633 11.69 13.7122 11.674 13.7877 11.6403C14.0762 11.5118 14.206 11.1735 14.0772 10.8848L11.706 5.56605C11.6062 5.29555 11.7302 4.9898 11.997 4.87055L12.119 4.8163C12.3975 4.6923 12.725 4.8178 12.849 5.09605L15.4285 10.8815C15.5235 11.0943 15.7322 11.2208 15.9512 11.2208C16.029 11.2208 16.1082 11.2048 16.1837 11.171C16.4722 11.0425 16.602 10.7043 16.4732 10.4155C16.4732 10.4155 14.837 6.63105 14.8045 6.55755C14.6655 6.24555 14.806 5.87855 15.118 5.73955C15.269 5.67205 15.4375 5.6678 15.592 5.7268C15.7465 5.78605 15.8687 5.90205 15.936 6.05305L17.1642 8.80755L19.0765 13.003C19.62 14.2213 19.6485 15.5968 19.157 16.8768Z" fill="black"/>
<path d="M19.5862 3.06443C19.3492 2.85568 18.9877 2.87843 18.7789 3.11543C18.5702 3.35243 18.5929 3.71393 18.8299 3.92268C19.9547 4.91393 20.8422 6.16968 21.3969 7.55443C21.4864 7.77793 21.7012 7.91393 21.9282 7.91393C21.9989 7.91393 22.0709 7.90068 22.1407 7.87268C22.4339 7.75543 22.5764 7.42243 22.4592 7.12893C21.8379 5.57893 20.8447 4.17318 19.5862 3.06443Z" fill="black"/>
<path d="M3.89445 6.82209C3.5982 6.71234 3.2692 6.86409 3.1597 7.16059C2.50595 8.93109 2.33395 10.8546 2.6622 12.7238C2.71095 13.0016 2.95245 13.1971 3.22495 13.1971C3.25795 13.1971 3.2912 13.1941 3.3247 13.1883C3.63595 13.1338 3.8437 12.8371 3.7892 12.5258C3.4957 10.8561 3.6492 9.13784 4.23295 7.55709C4.3422 7.26034 4.1907 6.93134 3.89445 6.82209Z" fill="black"/>
</svg>
