<svg width="61" height="60" viewBox="0 0 61 60" fill="none" xmlns="http://www.w3.org/2000/svg">
<path d="M31.2709 7.5H25.6459C25.1284 7.5 24.7084 7.08 24.7084 6.5625C24.7084 6.045 25.1284 5.625 25.6459 5.625H31.2709C31.7884 5.625 32.2084 6.045 32.2084 6.5625C32.2084 7.08 31.7884 7.5 31.2709 7.5Z" fill="black"/>
<path d="M38.7709 58.125H18.1459C15.5602 58.125 13.4584 56.0213 13.4584 53.4375V40.3125C13.4584 39.795 13.8784 39.375 14.3959 39.375C14.9134 39.375 15.3334 39.795 15.3334 40.3125V53.4375C15.3334 54.9881 16.5952 56.25 18.1459 56.25H38.7709C40.3215 56.25 41.5834 54.9881 41.5834 53.4375V21.5625C41.5834 21.045 42.0034 20.625 42.5209 20.625C43.0384 20.625 43.4584 21.045 43.4584 21.5625V53.4375C43.4584 56.0213 41.3565 58.125 38.7709 58.125Z" fill="black"/>
<path d="M42.5209 9.375C42.0034 9.375 41.5834 8.955 41.5834 8.4375V6.5625C41.5834 5.01187 40.3215 3.75 38.7709 3.75H18.1459C16.5952 3.75 15.3334 5.01187 15.3334 6.5625V8.4375C15.3334 8.955 14.9134 9.375 14.3959 9.375C13.8784 9.375 13.4584 8.955 13.4584 8.4375V6.5625C13.4584 3.97875 15.5602 1.875 18.1459 1.875H38.7709C41.3565 1.875 43.4584 3.97875 43.4584 6.5625V8.4375C43.4584 8.955 43.0384 9.375 42.5209 9.375Z" fill="black"/>
<path d="M27.5209 46.875H20.0209C19.5034 46.875 19.0834 46.455 19.0834 45.9375C19.0834 45.42 19.5034 45 20.0209 45H27.5209C28.0384 45 28.4584 45.42 28.4584 45.9375C28.4584 46.455 28.0384 46.875 27.5209 46.875Z" fill="black"/>
<path d="M33.1459 50.625H20.0209C19.5034 50.625 19.0834 50.205 19.0834 49.6875C19.0834 49.17 19.5034 48.75 20.0209 48.75H33.1459C33.6634 48.75 34.0834 49.17 34.0834 49.6875C34.0834 50.205 33.6634 50.625 33.1459 50.625Z" fill="black"/>
<path d="M36.8959 43.125H20.0209C19.5034 43.125 19.0834 42.705 19.0834 42.1875C19.0834 41.67 19.5034 41.25 20.0209 41.25H36.8959C37.4134 41.25 37.8334 41.67 37.8334 42.1875C37.8334 42.705 37.4134 43.125 36.8959 43.125Z" fill="black"/>
<path d="M17.2084 26.25C14.6227 26.25 12.5209 24.1463 12.5209 21.5625C12.5209 18.9787 14.6227 16.875 17.2084 16.875C19.794 16.875 21.8959 18.9787 21.8959 21.5625C21.8959 24.1463 19.794 26.25 17.2084 26.25ZM17.2084 18.75C15.6577 18.75 14.3959 20.0119 14.3959 21.5625C14.3959 23.1131 15.6577 24.375 17.2084 24.375C18.759 24.375 20.0209 23.1131 20.0209 21.5625C20.0209 20.0119 18.759 18.75 17.2084 18.75Z" fill="black"/>
<path d="M17.2084 37.5C13.9197 37.5 10.764 36.2588 8.32279 34.0088C8.07154 33.7763 7.96654 33.4256 8.04904 33.0956C8.76904 30.1687 11.379 28.125 14.3959 28.125H20.0209C23.0378 28.125 25.6478 30.1687 26.3697 33.0937C26.4522 33.4256 26.3453 33.7762 26.0959 34.0069C23.6528 36.2587 20.4972 37.5 17.2084 37.5ZM10.0328 33.0131C14.0865 36.39 20.3303 36.39 24.384 33.0131C23.709 31.215 21.9859 30 20.0209 30H14.3959C12.4309 30 10.7078 31.215 10.0328 33.0131Z" fill="black"/>
<path d="M17.2084 37.5C9.97275 37.5 4.08337 31.6125 4.08337 24.375C4.08337 17.1375 9.97275 11.25 17.2084 11.25C24.444 11.25 30.3334 17.1375 30.3334 24.375C30.3334 31.6125 24.444 37.5 17.2084 37.5ZM17.2084 13.125C11.004 13.125 5.95837 18.1706 5.95837 24.375C5.95837 30.5794 11.004 35.625 17.2084 35.625C23.4127 35.625 28.4584 30.5794 28.4584 24.375C28.4584 18.1706 23.4127 13.125 17.2084 13.125Z" fill="black"/>
<path d="M8.77087 43.0313C8.25337 43.0313 7.83337 42.705 7.83337 42.1875V42C7.83337 41.4825 8.25337 41.0625 8.77087 41.0625C9.28837 41.0625 9.70837 41.4825 9.70837 42C9.70837 42.5175 9.28837 43.0313 8.77087 43.0313Z" fill="black"/>
<path d="M8.77087 46.7813C8.25337 46.7813 7.83337 46.455 7.83337 45.9375V45.75C7.83337 45.2325 8.25337 44.8125 8.77087 44.8125C9.28837 44.8125 9.70837 45.2325 9.70837 45.75C9.70837 46.2675 9.28837 46.7813 8.77087 46.7813Z" fill="black"/>
<path d="M8.77087 50.5313C8.25337 50.5313 7.83337 50.205 7.83337 49.6875V49.5C7.83337 48.9825 8.25337 48.5625 8.77087 48.5625C9.28837 48.5625 9.70837 48.9825 9.70837 49.5C9.70837 50.0175 9.28837 50.5313 8.77087 50.5313Z" fill="black"/>
<path d="M45.9709 50.625H44.3959C43.8784 50.625 43.4584 50.205 43.4584 49.6875C43.4584 49.17 43.8784 48.75 44.3959 48.75H45.2152L45.6746 46.6219C45.7496 46.2694 46.0215 45.9938 46.3702 45.9094C47.2552 45.6956 48.1177 45.3356 48.9334 44.8387C49.2352 44.6512 49.6234 44.6569 49.9252 44.8481L51.7815 46.035L52.9309 44.8762L51.744 43.035C51.549 42.7331 51.5452 42.345 51.7309 42.0394C52.2277 41.2237 52.5877 40.3613 52.7996 39.4763C52.884 39.1275 53.1578 38.8575 53.5084 38.7787L55.644 38.3044V36.6975L53.5084 36.2231C53.1578 36.1444 52.884 35.8744 52.7996 35.5256C52.5877 34.6406 52.2259 33.7781 51.7309 32.9625C51.5434 32.6569 51.5471 32.2706 51.7421 31.9687L52.9309 30.1106L51.7834 28.9631L49.9252 30.1519C49.6252 30.345 49.2371 30.3488 48.9334 30.1613C48.1159 29.6644 47.2534 29.3044 46.3702 29.0906C46.0196 29.0063 45.7496 28.7288 45.6746 28.3781L45.2152 26.25H44.3959C43.8784 26.25 43.4584 25.83 43.4584 25.3125C43.4584 24.795 43.8784 24.375 44.3959 24.375H45.9709C46.4115 24.375 46.794 24.6844 46.8859 25.1156L47.3865 27.4275C48.0727 27.6356 48.7459 27.9169 49.3946 28.2675L51.4084 26.9794C51.7796 26.745 52.2653 26.7937 52.5765 27.1069L54.7909 29.3194C55.1021 29.6306 55.1546 30.1163 54.9165 30.4875L53.6284 32.5012C53.979 33.1519 54.2602 33.825 54.4684 34.5131L56.784 35.0269C57.2134 35.1225 57.519 35.5031 57.519 35.9419V39.0544C57.519 39.4931 57.2134 39.8756 56.784 39.9694L54.4684 40.4831C54.2602 41.1712 53.979 41.8444 53.6284 42.4931L54.9146 44.4881C55.1546 44.8575 55.104 45.345 54.7927 45.6562L52.5784 47.8875C52.2671 48.2006 51.7815 48.255 51.4084 48.0169L49.3946 46.7288C48.744 47.0794 48.0727 47.3606 47.3865 47.5688L46.8859 49.8806C46.794 50.3156 46.4115 50.625 45.9709 50.625Z" fill="black"/>
<path d="M46.3702 42.69C46.0177 42.69 45.6802 42.4894 45.5209 42.1481C45.3034 41.6794 45.5059 41.1206 45.9746 40.9031C47.2927 40.2881 48.1459 38.9531 48.1459 37.5C48.1459 35.4319 46.464 33.75 44.3959 33.75C43.8877 33.75 43.3984 33.8494 42.939 34.0444C42.4646 34.2487 41.9134 34.0256 41.7109 33.5475C41.5084 33.0713 41.7315 32.5219 42.2077 32.3194C42.8977 32.025 43.6365 31.875 44.3959 31.875C47.4971 31.875 50.0209 34.3987 50.0209 37.5C50.0209 39.6806 48.7421 41.6831 46.7659 42.6019C46.6365 42.6619 46.5034 42.69 46.3702 42.69Z" fill="black"/>
<path d="M49.0834 18.75H37.8334C35.7652 18.75 34.0834 17.0681 34.0834 15C34.0834 12.9319 35.7652 11.25 37.8334 11.25H49.0834C51.1515 11.25 52.8334 12.9319 52.8334 15C52.8334 17.0681 51.1515 18.75 49.0834 18.75ZM37.8334 13.125C36.7984 13.125 35.9584 13.9669 35.9584 15C35.9584 16.0331 36.7984 16.875 37.8334 16.875H49.0834C50.1184 16.875 50.9584 16.0331 50.9584 15C50.9584 13.9669 50.1184 13.125 49.0834 13.125H37.8334Z" fill="black"/>
</svg>
