<svg width="61" height="60" viewBox="0 0 61 60" fill="none" xmlns="http://www.w3.org/2000/svg">
<path d="M58.7918 15.0001H56.5634C56.9935 13.3374 57.0373 11.5983 56.6913 9.91612C56.3454 8.23392 55.6189 6.65325 54.5675 5.29527C53.5162 3.93729 52.1678 2.83804 50.6259 2.08177C49.084 1.32551 47.3894 0.932312 45.672 0.932312C43.9546 0.932312 42.2599 1.32551 40.718 2.08177C39.1761 2.83804 37.8278 3.93729 36.7764 5.29527C35.725 6.65325 34.9985 8.23392 34.6526 9.91612C34.3066 11.5983 34.3504 13.3374 34.7806 15.0001H23.5549L11.1265 2.57163C10.6093 2.0502 9.99414 1.63605 9.31644 1.35294C8.63875 1.06984 7.91181 0.923348 7.17736 0.921886C6.44291 0.920425 5.7154 1.06402 5.03658 1.34443C4.35776 1.62483 3.741 2.03654 3.2217 2.5559C2.70239 3.07527 2.29076 3.69208 2.01043 4.37093C1.73011 5.04978 1.5866 5.77731 1.58815 6.51176C1.5897 7.24621 1.73627 7.97313 2.01946 8.65079C2.30265 9.32846 2.71687 9.94352 3.23836 10.4607L3.6518 10.8732C2.34124 12.3337 1.61263 14.2246 1.6043 16.1869V51.5626C1.60332 52.5478 1.79664 53.5235 2.1732 54.4339C2.54976 55.3443 3.10217 56.1714 3.7988 56.8681C4.49544 57.5647 5.32262 58.1171 6.23301 58.4937C7.1434 58.8702 8.11911 59.0636 9.1043 59.0626H58.7918C59.0404 59.0626 59.2789 58.9638 59.4547 58.788C59.6305 58.6122 59.7293 58.3737 59.7293 58.1251V15.9376C59.7293 15.6889 59.6305 15.4505 59.4547 15.2747C59.2789 15.0988 59.0404 15.0001 58.7918 15.0001ZM36.3546 11.0776C36.6313 8.69878 37.8078 6.51606 39.6428 4.97723C41.4778 3.4384 43.8321 2.66015 46.2227 2.80215C48.6133 2.94415 50.859 3.99563 52.4989 5.74087C54.1388 7.4861 55.0487 9.79276 55.0418 12.1876C55.0493 14.2812 54.347 16.3156 53.0496 17.9588C51.3839 20.0565 50.4387 22.6353 50.3543 25.3126H48.4793V19.6876H49.4168C49.9731 19.6876 50.5168 19.5226 50.9793 19.2136C51.4419 18.9045 51.8023 18.4653 52.0152 17.9514C52.2281 17.4375 52.2838 16.872 52.1753 16.3264C52.0667 15.7808 51.7989 15.2797 51.4055 14.8863C51.0122 14.493 50.5111 14.2251 49.9655 14.1166C49.4199 14.0081 48.8544 14.0638 48.3405 14.2767C47.8266 14.4895 47.3873 14.85 47.0783 15.3125C46.7693 15.775 46.6043 16.3188 46.6043 16.8751V17.8126H44.7293V16.8751C44.7293 16.3188 44.5644 15.775 44.2553 15.3125C43.9463 14.85 43.507 14.4895 42.9931 14.2767C42.4792 14.0638 41.9137 14.0081 41.3681 14.1166C40.8225 14.2251 40.3214 14.493 39.9281 14.8863C39.5347 15.2797 39.2669 15.7808 39.1583 16.3264C39.0498 16.872 39.1055 17.4375 39.3184 17.9514C39.5313 18.4653 39.8918 18.9045 40.3543 19.2136C40.8168 19.5226 41.3605 19.6876 41.9168 19.6876H42.8543V25.3126H40.9793C40.8836 22.6081 39.9209 20.006 38.2334 17.8904C36.7415 15.9519 36.0672 13.5067 36.3546 11.0776ZM47.5418 30.9376C47.5418 31.4349 47.3443 31.9118 46.9926 32.2634C46.641 32.615 46.1641 32.8126 45.6668 32.8126C45.1695 32.8126 44.6926 32.615 44.341 32.2634C43.9893 31.9118 43.7918 31.4349 43.7918 30.9376H47.5418ZM41.9168 29.0626C41.6682 29.0626 41.4297 28.9638 41.2539 28.788C41.0781 28.6122 40.9793 28.3737 40.9793 28.1251V27.1876H50.3543V28.1251C50.3543 28.3737 50.2555 28.6122 50.0797 28.788C49.9039 28.9638 49.6654 29.0626 49.4168 29.0626H41.9168ZM42.8543 17.8126H41.9168C41.7314 17.8126 41.5501 17.7576 41.396 17.6546C41.2418 17.5516 41.1216 17.4051 41.0507 17.2338C40.9797 17.0625 40.9611 16.874 40.9973 16.6922C41.0335 16.5103 41.1228 16.3433 41.2539 16.2122C41.385 16.081 41.552 15.9918 41.7339 15.9556C41.9158 15.9194 42.1043 15.938 42.2756 16.0089C42.4469 16.0799 42.5933 16.2001 42.6963 16.3542C42.7993 16.5084 42.8543 16.6897 42.8543 16.8751V17.8126ZM46.6043 25.3126H44.7293V19.6876H46.6043V25.3126ZM48.4793 17.8126V16.8751C48.4793 16.6897 48.5343 16.5084 48.6373 16.3542C48.7403 16.2001 48.8867 16.0799 49.058 16.0089C49.2293 15.938 49.4178 15.9194 49.5997 15.9556C49.7816 15.9918 49.9486 16.081 50.0797 16.2122C50.2108 16.3433 50.3001 16.5103 50.3363 16.6922C50.3725 16.874 50.3539 17.0625 50.2829 17.2338C50.212 17.4051 50.0918 17.5516 49.9376 17.6546C49.7835 17.7576 49.6022 17.8126 49.4168 17.8126H48.4793ZM29.269 28.6013L26.6702 27.8223L28.489 26.0035L29.269 28.6013ZM24.6302 27.2101L22.2293 26.4901V24.3751H24.1043C24.3529 24.3751 24.5914 24.2763 24.7672 24.1005C24.943 23.9247 25.0418 23.6862 25.0418 23.4376V21.5626H27.1568L27.8768 23.9644L24.6302 27.2101ZM10.4299 15.0001L12.3856 13.0444L21.8412 22.5001H21.2918C21.0432 22.5001 20.8047 22.5988 20.6289 22.7747C20.4531 22.9505 20.3543 23.1889 20.3543 23.4376V24.9235L10.4299 15.0001ZM9.1043 13.6744L7.61743 12.1876L12.8543 6.9507L14.3412 8.43757L9.1043 13.6744ZM24.1043 19.6876C23.8557 19.6876 23.6172 19.7863 23.4414 19.9622C23.2656 20.138 23.1668 20.3764 23.1668 20.6251V21.1744L13.7112 11.7188L15.6668 9.7632L25.5912 19.6876H24.1043ZM7.18243 2.81257C7.66892 2.81125 8.15084 2.90644 8.6003 3.09263C9.04975 3.27882 9.45782 3.5523 9.80087 3.89726L11.5287 5.62507L6.2918 10.861L4.56399 9.1332C4.04599 8.61543 3.6932 7.95566 3.55025 7.23735C3.4073 6.51904 3.48062 5.77447 3.76093 5.09783C4.04124 4.4212 4.51594 3.84291 5.12498 3.43612C5.73402 3.02934 6.45003 2.81234 7.18243 2.81257ZM4.9793 12.2007L14.7293 21.9507V46.6013C14.6149 46.4719 14.4952 46.3469 14.3702 46.2263C13.6657 45.5239 12.827 44.9703 11.9042 44.5986C10.9813 44.2269 9.99311 44.0446 8.99837 44.0626C7.94926 44.0823 6.91598 44.322 5.9653 44.7661C5.01463 45.2102 4.16771 45.8488 3.4793 46.6407V16.1869C3.48456 14.7212 4.01699 13.3063 4.9793 12.2007ZM57.8543 57.1876H9.1043C8.35886 57.1876 7.62084 57.0396 6.93314 56.7519C6.24544 56.4642 5.62177 56.0428 5.09839 55.512C4.575 54.9812 4.16234 54.3516 3.88439 53.66C3.60644 52.9683 3.46874 52.2282 3.4793 51.4829C3.52617 50.0272 4.12533 48.644 5.15509 47.614C6.18485 46.5841 7.56801 45.9847 9.02368 45.9376H9.1043C10.5961 45.9376 12.0269 46.5302 13.0818 47.5851C14.1367 48.64 14.7293 50.0707 14.7293 51.5626C14.7293 51.8112 14.8281 52.0497 15.0039 52.2255C15.1797 52.4013 15.4182 52.5001 15.6668 52.5001C15.9154 52.5001 16.1539 52.4013 16.3297 52.2255C16.5055 52.0497 16.6043 51.8112 16.6043 51.5626V23.8257L20.629 27.8504C20.7387 27.9602 20.874 28.0411 21.0227 28.0857L30.3977 30.8982C30.4851 30.9242 30.5757 30.9374 30.6668 30.9376C30.8129 30.9376 30.957 30.9034 31.0876 30.8379C31.2182 30.7723 31.3316 30.6771 31.4189 30.5599C31.5062 30.4426 31.5648 30.3067 31.5901 30.1627C31.6155 30.0188 31.6069 29.871 31.5649 29.731L28.7524 20.356C28.7078 20.2073 28.6269 20.072 28.5171 19.9623L25.4299 16.8751H35.4481C35.797 17.6399 36.2306 18.3632 36.7409 19.0313C38.2338 20.888 39.0654 23.1892 39.1043 25.5713V28.1251C39.1043 28.871 39.4006 29.5864 39.9281 30.1138C40.4555 30.6413 41.1709 30.9376 41.9168 30.9376C41.9168 31.9321 42.3119 32.886 43.0152 33.5892C43.7184 34.2925 44.6722 34.6876 45.6668 34.6876C46.6614 34.6876 47.6152 34.2925 48.3185 33.5892C49.0217 32.886 49.4168 31.9321 49.4168 30.9376C50.1627 30.9376 50.8781 30.6413 51.4055 30.1138C51.933 29.5864 52.2293 28.871 52.2293 28.1251V25.5666C52.2554 23.2207 53.0633 20.9506 54.5252 19.1157C55.0663 18.4246 55.5247 17.6726 55.8912 16.8751H57.8543V57.1876Z" fill="black"/>
<path d="M38.0364 48.3928C38.2914 47.9066 38.5026 47.3987 38.6674 46.875H40.0417C40.2904 46.875 40.5288 46.7762 40.7047 46.6004C40.8805 46.4246 40.9792 46.1861 40.9792 45.9375V42.1875C40.9792 41.9389 40.8805 41.7004 40.7047 41.5246C40.5288 41.3488 40.2904 41.25 40.0417 41.25H38.6674C38.5026 40.7263 38.2914 40.2184 38.0364 39.7322L39.0105 38.7591C39.1863 38.5833 39.285 38.3448 39.285 38.0963C39.285 37.8477 39.1863 37.6092 39.0105 37.4334L36.3583 34.7812C36.1825 34.6055 35.9441 34.5068 35.6955 34.5068C35.4469 34.5068 35.2085 34.6055 35.0327 34.7812L34.0596 35.7534C33.5732 35.4993 33.0653 35.2888 32.5417 35.1244V33.75C32.5417 33.5014 32.443 33.2629 32.2672 33.0871C32.0913 32.9113 31.8529 32.8125 31.6042 32.8125H27.8542C27.6056 32.8125 27.3672 32.9113 27.1913 33.0871C27.0155 33.2629 26.9167 33.5014 26.9167 33.75V35.1244C26.3932 35.2891 25.8853 35.4999 25.3989 35.7544L24.4258 34.7812C24.2467 34.6119 24.0095 34.5175 23.763 34.5175C23.5165 34.5175 23.2793 34.6119 23.1002 34.7812L20.448 37.4334C20.2722 37.6092 20.1735 37.8477 20.1735 38.0963C20.1735 38.3448 20.2722 38.5833 20.448 38.7591L21.4211 39.7322C21.1665 40.2184 20.9556 40.7264 20.7911 41.25H19.4167C19.1681 41.25 18.9297 41.3488 18.7538 41.5246C18.578 41.7004 18.4792 41.9389 18.4792 42.1875V45.9375C18.4792 46.1861 18.578 46.4246 18.7538 46.6004C18.9297 46.7762 19.1681 46.875 19.4167 46.875H20.7911C20.9559 47.3987 21.1671 47.9066 21.4221 48.3928L20.448 49.3659C20.2722 49.5417 20.1735 49.7802 20.1735 50.0287C20.1735 50.2773 20.2722 50.5158 20.448 50.6916L23.1002 53.3438C23.276 53.5195 23.5144 53.6182 23.763 53.6182C24.0116 53.6182 24.25 53.5195 24.4258 53.3438L25.3989 52.3706C25.8852 52.6253 26.3931 52.8361 26.9167 53.0006V54.375C26.9167 54.6236 27.0155 54.8621 27.1913 55.0379C27.3672 55.2137 27.6056 55.3125 27.8542 55.3125H31.6042C31.8529 55.3125 32.0913 55.2137 32.2672 55.0379C32.443 54.8621 32.5417 54.6236 32.5417 54.375V53.0006C33.0654 52.8358 33.5734 52.6247 34.0596 52.3697L35.0327 53.3438C35.2118 53.5131 35.449 53.6075 35.6955 53.6075C35.942 53.6075 36.1792 53.5131 36.3583 53.3438L39.0105 50.6916C39.1863 50.5158 39.285 50.2773 39.285 50.0287C39.285 49.7802 39.1863 49.5417 39.0105 49.3659L38.0364 48.3928ZM37.0417 45.7294C36.8541 46.551 36.5285 47.3349 36.0789 48.0478C35.9653 48.2276 35.9162 48.4408 35.9397 48.6522C35.9632 48.8636 36.0579 49.0608 36.2083 49.2113L37.0258 50.0287L35.7002 51.3544L34.8827 50.5369C34.7324 50.3866 34.5355 50.2918 34.3243 50.2682C34.113 50.2445 33.9 50.2933 33.7202 50.4066C33.0074 50.8569 32.223 51.1825 31.4008 51.3694C31.1937 51.4165 31.0087 51.5327 30.8761 51.6987C30.7436 51.8648 30.6714 52.071 30.6714 52.2834V53.4375H28.7917V52.2834C28.7917 52.071 28.7196 51.8648 28.587 51.6987C28.4545 51.5327 28.2695 51.4165 28.0624 51.3694C27.2402 51.1825 26.4558 50.8569 25.743 50.4066C25.5632 50.2933 25.3502 50.2445 25.1389 50.2682C24.9277 50.2918 24.7308 50.3866 24.5805 50.5369L23.763 51.3544L22.4374 50.0287L23.2549 49.2113C23.4052 49.0608 23.5 48.8636 23.5235 48.6522C23.547 48.4408 23.4979 48.2276 23.3842 48.0478C22.9347 47.3349 22.6091 46.551 22.4214 45.7294C22.3743 45.5222 22.2581 45.3372 22.0921 45.2047C21.926 45.0722 21.7198 45 21.5074 45H20.3542V43.125H21.5074C21.7198 43.125 21.926 43.0528 22.0921 42.9203C22.2581 42.7878 22.3743 42.6028 22.4214 42.3956C22.6091 41.574 22.9347 40.7901 23.3842 40.0772C23.4979 39.8974 23.547 39.6842 23.5235 39.4728C23.5 39.2614 23.4052 39.0642 23.2549 38.9137L22.4374 38.0963L23.763 36.7706L24.5805 37.5881C24.7308 37.7384 24.9277 37.8332 25.1389 37.8568C25.3502 37.8805 25.5632 37.8317 25.743 37.7184C26.4558 37.268 27.2401 36.9424 28.0624 36.7556C28.2697 36.7084 28.4548 36.5921 28.5873 36.4259C28.7199 36.2596 28.792 36.0532 28.7917 35.8406V34.6875H30.6667V35.8406C30.6665 36.0532 30.7386 36.2596 30.8712 36.4259C31.0037 36.5921 31.1888 36.7084 31.3961 36.7556C32.2183 36.9424 33.0027 37.268 33.7155 37.7184C33.8953 37.8317 34.1083 37.8805 34.3196 37.8568C34.5308 37.8332 34.7277 37.7384 34.878 37.5881L35.6955 36.7706L37.0211 38.0963L36.2036 38.9137C36.0533 39.0642 35.9585 39.2614 35.935 39.4728C35.9115 39.6842 35.9606 39.8974 36.0742 40.0772C36.5255 40.7898 36.8526 41.5737 37.0417 42.3956C37.0887 42.602 37.2042 42.7864 37.3693 42.9188C37.5344 43.0513 37.7395 43.1239 37.9511 43.125H39.1042V45H37.9511C37.7395 45.0011 37.5344 45.0737 37.3693 45.2062C37.2042 45.3386 37.0887 45.523 37.0417 45.7294Z" fill="black"/>
<path d="M29.7293 38.4375C28.6167 38.4375 27.5292 38.7674 26.6042 39.3855C25.6791 40.0036 24.9582 40.8821 24.5324 41.9099C24.1067 42.9377 23.9953 44.0687 24.2123 45.1599C24.4294 46.251 24.9651 47.2533 25.7518 48.04C26.5384 48.8266 27.5407 49.3624 28.6319 49.5794C29.723 49.7965 30.854 49.6851 31.8818 49.2593C32.9097 48.8336 33.7882 48.1126 34.4063 47.1876C35.0244 46.2626 35.3543 45.175 35.3543 44.0625C35.3528 42.5711 34.7597 41.1412 33.7051 40.0867C32.6505 39.0321 31.2206 38.439 29.7293 38.4375ZM29.7293 47.8125C28.9876 47.8125 28.2625 47.5926 27.6459 47.1805C27.0292 46.7685 26.5485 46.1828 26.2647 45.4976C25.9809 44.8123 25.9066 44.0583 26.0513 43.3309C26.196 42.6035 26.5532 41.9353 27.0776 41.4109C27.602 40.8864 28.2702 40.5292 28.9977 40.3846C29.7251 40.2399 30.4791 40.3141 31.1643 40.598C31.8495 40.8818 32.4352 41.3624 32.8473 41.9791C33.2593 42.5958 33.4793 43.3208 33.4793 44.0625C33.4793 45.0571 33.0842 46.0109 32.3809 46.7141C31.6776 47.4174 30.7238 47.8125 29.7293 47.8125Z" fill="black"/>
<path d="M51.2917 12.1875H53.1667C53.1645 10.1991 52.3736 8.2927 50.9676 6.88667C49.5615 5.48063 47.6552 4.68973 45.6667 4.6875V6.5625C47.1581 6.56399 48.588 7.1571 49.6426 8.21167C50.6971 9.26624 51.2903 10.6961 51.2917 12.1875Z" fill="black"/>
<path d="M49.8855 41.25C49.0153 41.25 48.1807 40.9043 47.5653 40.2889C46.95 39.6736 46.6042 38.839 46.6042 37.9688V36.5625H44.7292V37.9688C44.7307 39.3358 45.2745 40.6465 46.2411 41.6131C47.2078 42.5798 48.5184 43.1235 49.8855 43.125C51.0044 43.125 52.0774 43.5695 52.8686 44.3606C53.6598 45.1518 54.1042 46.2249 54.1042 47.3438C54.1042 48.4626 53.6598 49.5357 52.8686 50.3269C52.0774 51.118 51.0044 51.5625 49.8855 51.5625H40.0417V53.4375H49.8855C51.5017 53.4375 53.0516 52.7955 54.1944 51.6527C55.3372 50.5099 55.9792 48.9599 55.9792 47.3438C55.9792 45.7276 55.3372 44.1776 54.1944 43.0348C53.0516 41.892 51.5017 41.25 49.8855 41.25Z" fill="black"/>
</svg>
