<svg width="61" height="60" viewBox="0 0 61 60" fill="none" xmlns="http://www.w3.org/2000/svg">
<path d="M6.08313 52.3325C6.08313 52.8179 6.47665 53.2114 6.96204 53.2114H14.7671C15.2525 53.2114 15.646 52.8179 15.646 52.3325C15.646 51.8471 15.2525 51.4536 14.7671 51.4536H6.96204C6.47665 51.4536 6.08313 51.8471 6.08313 52.3325Z" fill="black"/>
<path d="M10.8502 25.4668H15.6343C16.1197 25.4668 16.5132 25.0733 16.5132 24.5879C16.5132 24.1025 16.1197 23.709 15.6343 23.709H10.8502C10.3648 23.709 9.97131 24.1025 9.97131 24.5879C9.97131 25.0733 10.3648 25.4668 10.8502 25.4668Z" fill="black"/>
<path d="M10.8502 30.1494H15.6343C16.1197 30.1494 16.5132 29.7559 16.5132 29.2705C16.5132 28.7851 16.1197 28.3916 15.6343 28.3916H10.8502C10.3648 28.3916 9.97131 28.7851 9.97131 29.2705C9.97131 29.7559 10.3648 30.1494 10.8502 30.1494Z" fill="black"/>
<path d="M10.8502 34.8325H15.6343C16.1197 34.8325 16.5132 34.439 16.5132 33.9536C16.5132 33.4682 16.1197 33.0747 15.6343 33.0747H10.8502C10.3648 33.0747 9.97131 33.4682 9.97131 33.9536C9.97131 34.439 10.3648 34.8325 10.8502 34.8325Z" fill="black"/>
<path d="M6.09473 25.4668H6.59687C7.08227 25.4668 7.47578 25.0733 7.47578 24.5879C7.47578 24.1025 7.08227 23.709 6.59687 23.709H6.09473C5.60934 23.709 5.21582 24.1025 5.21582 24.5879C5.21582 25.0733 5.60934 25.4668 6.09473 25.4668Z" fill="black"/>
<path d="M6.09473 30.1494H6.59687C7.08227 30.1494 7.47578 29.7559 7.47578 29.2705C7.47578 28.7851 7.08227 28.3916 6.59687 28.3916H6.09473C5.60934 28.3916 5.21582 28.7851 5.21582 29.2705C5.21582 29.7559 5.60934 30.1494 6.09473 30.1494Z" fill="black"/>
<path d="M6.09473 34.8325H6.59687C7.08227 34.8325 7.47578 34.439 7.47578 33.9536C7.47578 33.4682 7.08227 33.0747 6.59687 33.0747H6.09473C5.60934 33.0747 5.21582 33.4682 5.21582 33.9536C5.21582 34.439 5.60934 34.8325 6.09473 34.8325Z" fill="black"/>
<path d="M58.9084 12.5205H1.75867C1.27328 12.5205 0.879761 12.914 0.879761 13.3994C0.879761 13.8848 1.27328 14.2783 1.75867 14.2783H58.9084C59.3939 14.2783 59.7873 13.8848 59.7873 13.3994C59.7873 12.914 59.3939 12.5205 58.9084 12.5205Z" fill="black"/>
<path d="M10.217 0C9.73165 0 9.33813 0.393516 9.33813 0.878906V7.76473C9.33813 8.25012 9.73165 8.64363 10.217 8.64363C10.7024 8.64363 11.0959 8.25012 11.0959 7.76473V0.878906C11.0959 0.393516 10.7024 0 10.217 0Z" fill="black"/>
<path d="M6.54344 0.000488281C6.05805 0.000488281 5.66454 0.394004 5.66454 0.879395V5.6126C5.66454 5.93732 5.57196 6.3565 4.85032 6.7199C4.62813 6.83182 4.38684 6.88619 4.11239 6.88619H4.10946C3.80922 6.88584 3.54836 6.81225 3.31235 6.66143C2.75254 6.30377 2.63782 5.98537 2.63782 5.61752V0.879395C2.63782 0.394004 2.2443 0.000488281 1.75891 0.000488281C1.27352 0.000488281 0.880005 0.394004 0.880005 0.879395V5.61764C0.880005 6.6633 1.37993 7.51291 2.36594 8.14291C2.8852 8.47467 3.47114 8.6433 4.10711 8.64412H4.11239C4.66024 8.64412 5.17458 8.52494 5.6411 8.28998C7.11333 7.54853 7.42235 6.42471 7.42235 5.6126V0.879395C7.42235 0.394004 7.02883 0.000488281 6.54344 0.000488281Z" fill="black"/>
<path d="M32.1315 4.07767L34.0283 1.38517C34.3079 0.988378 34.2129 0.440058 33.816 0.160448C33.4188 -0.119161 32.8707 -0.0238878 32.5914 0.372792L31.0573 2.55049L29.5256 0.373261C29.2463 -0.0237705 28.698 -0.119044 28.301 0.160097C27.904 0.439354 27.8086 0.987675 28.0879 1.38471L29.9818 4.07697L27.7405 7.25861C27.461 7.65541 27.5561 8.20373 27.9529 8.48334C28.1067 8.59174 28.2833 8.64377 28.4583 8.64377C28.7345 8.64377 29.0064 8.51393 29.1776 8.271L31.0562 5.60416L32.9319 8.27053C33.103 8.51381 33.375 8.64377 33.6516 8.64377C33.8262 8.64377 34.0027 8.59185 34.1565 8.48369C34.5536 8.20443 34.6489 7.65611 34.3696 7.25908L32.1315 4.07767Z" fill="black"/>
<path d="M25.6745 0C25.1891 0 24.7956 0.393516 24.7956 0.878906V5.61211C24.7956 5.93684 24.7031 6.35602 23.9814 6.71941C23.7592 6.83133 23.5179 6.8857 23.2435 6.8857H23.2406C22.9402 6.88535 22.6795 6.81187 22.4433 6.66094C21.8835 6.30328 21.7688 5.98488 21.7688 5.61703V0.878906C21.7688 0.393516 21.3753 0 20.8899 0C20.4045 0 20.011 0.393516 20.011 0.878906V5.61715C20.011 6.66281 20.511 7.51242 21.4969 8.14231C22.0162 8.47418 22.602 8.64281 23.2382 8.64363H23.2435C23.7913 8.64363 24.3057 8.52445 24.7722 8.28949C26.2444 7.54805 26.5536 6.42434 26.5536 5.61223V0.878906C26.5534 0.393516 26.1599 0 25.6745 0Z" fill="black"/>
<path d="M17.4882 0.0696094C17.0412 -0.119414 16.5255 0.0897656 16.3364 0.536836L13.4246 7.42266C13.2356 7.86973 13.4446 8.38535 13.8918 8.57449C14.0036 8.62172 14.1195 8.6441 14.2337 8.6441C14.5762 8.6441 14.9018 8.44254 15.0436 8.10727L17.9554 1.22145C18.1444 0.774375 17.9353 0.258633 17.4882 0.0696094Z" fill="black"/>
<path d="M52.7812 1.78125H58.9084C59.3939 1.78125 59.7873 1.38773 59.7873 0.902344C59.7873 0.416953 59.3939 0.0234375 58.9084 0.0234375H52.7812C52.2957 0.0234375 51.9023 0.416953 51.9023 0.902344C51.9023 1.38773 52.2957 1.78125 52.7812 1.78125Z" fill="black"/>
<path d="M58.9084 3.44287H52.7812C52.2957 3.44287 51.9023 3.83639 51.9023 4.32178C51.9023 4.80717 52.2957 5.20068 52.7812 5.20068H58.9084C59.3939 5.20068 59.7873 4.80717 59.7873 4.32178C59.7873 3.83639 59.3939 3.44287 58.9084 3.44287Z" fill="black"/>
<path d="M58.9084 6.8623H52.7812C52.2957 6.8623 51.9023 7.25582 51.9023 7.74121C51.9023 8.2266 52.2957 8.62012 52.7812 8.62012H58.9084C59.3939 8.62012 59.7873 8.2266 59.7873 7.74121C59.7873 7.25582 59.3939 6.8623 58.9084 6.8623Z" fill="black"/>
<path d="M56.5647 18.1768H27.7776C26.0006 18.1768 24.5549 19.6224 24.5549 21.3994V56.7775C24.5549 58.5545 26.0006 60.0002 27.7776 60.0002H56.5647C58.3416 60.0002 59.7874 58.5545 59.7874 56.7775V21.3994C59.7874 19.6225 58.3416 18.1768 56.5647 18.1768ZM58.0295 56.7775C58.0295 57.5853 57.3725 58.2423 56.5647 58.2423H27.7776C26.9698 58.2423 26.3127 57.5853 26.3127 56.7775V21.3994C26.3127 20.5916 26.9698 19.9346 27.7776 19.9346H56.5647C57.3725 19.9346 58.0295 20.5916 58.0295 21.3994V56.7775Z" fill="black"/>
<path d="M17.6266 44.665H10.646C10.1607 44.665 9.76714 45.0586 9.76714 45.5439C9.76714 46.0293 10.1607 46.4229 10.646 46.4229H17.6266C18.4343 46.4229 19.0914 47.0799 19.0914 47.8877V56.7772C19.0914 57.585 18.4343 58.242 17.6266 58.242H4.10242C3.29464 58.242 2.63757 57.585 2.63757 56.7772V47.8877C2.63757 47.0799 3.29464 46.4229 4.10242 46.4229H6.54449C7.02988 46.4229 7.42339 46.0293 7.42339 45.5439C7.42339 45.0586 7.02988 44.665 6.54449 44.665H4.10242C2.32539 44.665 0.879761 46.1107 0.879761 47.8877V56.7772C0.879761 58.5542 2.32539 59.9998 4.10242 59.9998H17.6266C19.4036 59.9998 20.8492 58.5542 20.8492 56.7772V47.8877C20.8492 46.1107 19.4036 44.665 17.6266 44.665Z" fill="black"/>
<path d="M17.6266 18.1768H4.10242C2.32539 18.1768 0.879761 19.6224 0.879761 21.3994V25.2202C0.879761 25.7056 1.27328 26.0991 1.75867 26.0991C2.24406 26.0991 2.63757 25.7056 2.63757 25.2202V21.3994C2.63757 20.5916 3.29464 19.9346 4.10242 19.9346H17.6266C18.4343 19.9346 19.0914 20.5916 19.0914 21.3994V37.1425C19.0914 37.9503 18.4343 38.6073 17.6266 38.6073H4.10242C3.29464 38.6073 2.63757 37.9503 2.63757 37.1425V29.3218C2.63757 28.8364 2.24406 28.4429 1.75867 28.4429C1.27328 28.4429 0.879761 28.8364 0.879761 29.3218V37.1425C0.879761 38.9195 2.32539 40.3652 4.10242 40.3652H17.6266C19.4036 40.3652 20.8492 38.9195 20.8492 37.1425V21.3994C20.8492 19.6225 19.4036 18.1768 17.6266 18.1768Z" fill="black"/>
<path d="M42.1711 41.2597C38.7445 41.2597 35.7658 38.9422 34.9277 35.6241C34.8088 35.1534 34.3306 34.8683 33.8603 34.9871C33.3897 35.106 33.1046 35.5839 33.2234 36.0545C34.2589 40.1542 37.9382 43.0175 42.1711 43.0175C47.26 43.0175 51.4001 38.8774 51.4001 33.7886C51.4001 28.6997 47.26 24.5596 42.1711 24.5596C37.9383 24.5596 34.2589 27.4228 33.2234 31.5225C33.1045 31.9931 33.3897 32.471 33.8603 32.5898C34.3313 32.7088 34.809 32.4237 34.9277 31.9529C35.7657 28.6348 38.7443 26.3174 42.1711 26.3174C46.2908 26.3174 49.6423 29.6689 49.6423 33.7886C49.6423 37.9082 46.2908 41.2597 42.1711 41.2597Z" fill="black"/>
<path d="M49.8027 46.6216H34.5396C32.5248 46.6216 30.8856 48.2608 30.8856 50.2756C30.8856 52.2904 32.5247 53.9296 34.5396 53.9296H49.8027C51.8175 53.9296 53.4568 52.2904 53.4568 50.2756C53.4568 48.2608 51.8175 46.6216 49.8027 46.6216ZM49.8027 52.1718H34.5396C33.4941 52.1718 32.6434 51.3212 32.6434 50.2756C32.6434 49.2301 33.4941 48.3794 34.5396 48.3794H49.8027C50.8483 48.3794 51.6989 49.2301 51.6989 50.2756C51.6989 51.3212 50.8483 52.1718 49.8027 52.1718Z" fill="black"/>
</svg>
